<svg id="House_Detail_Link" data-name="House Detail Link" xmlns="http://www.w3.org/2000/svg" width="84" height="84" viewBox="0 0 84 84">
  <g id="Ellipse_3" data-name="Ellipse 3" fill="#fff" stroke="#707070" stroke-width="1" opacity="0.524">
    <circle cx="42" cy="42" r="42" stroke="none"/>
    <circle cx="42" cy="42" r="41.5" fill="none"/>
  </g>
  <g id="Icon_material-photo-camera" data-name="Icon material-photo-camera" transform="translate(25.905 27.514)" opacity="0.997">
    <path id="Path_3" data-name="Path 3" d="M23.5,18.351A5.151,5.151,0,1,1,18.351,13.2,5.151,5.151,0,0,1,23.5,18.351Z" transform="translate(-2.255 -2.255)" fill="#666"/>
    <path id="Path_4" data-name="Path 4" d="M14.267,3,11.321,6.219h-5.1A3.229,3.229,0,0,0,3,9.438V28.753a3.229,3.229,0,0,0,3.219,3.219H31.972a3.229,3.229,0,0,0,3.219-3.219V9.438a3.229,3.229,0,0,0-3.219-3.219h-5.1L23.924,3ZM19.1,27.143A8.048,8.048,0,1,1,27.143,19.1,8.051,8.051,0,0,1,19.1,27.143Z" transform="translate(-3 -3)" fill="#666"/>
  </g>
</svg>
